<svg width="901" height="1024" viewBox="0 0 901 1024" fill="none" xmlns="http://www.w3.org/2000/svg">
<g filter="url(#filter0_d_2543_2)">
<path d="M971 187.595C1078 1161.44 1243.34 1058.54 193.34 1025.44C-197.36 1013.13 137.991 783.467 137.991 484.973C137.991 186.48 -197.554 -5.05912 193.34 -5.05912C1088.5 -5.05895 1008.5 -77.0624 971 187.595Z" fill="url(#paint0_linear_2543_2)"/>
<g clip-path="url(#clip0_2543_2)">
<path d="M197.931 503.659C231.145 542.91 273.198 558.17 293.938 605.879C308.147 638.586 301.485 677.29 311.994 711.483C326.383 758.355 373.691 789.831 420.835 790.002C467.979 790.173 512.914 762.285 540.906 722.675C550.073 709.688 558.028 695.078 570.895 686.124C589.311 673.291 613.21 674.949 635.26 672.898C689.64 667.84 741.171 635.971 771.537 588.603C771.537 588.603 850.307 491.578 794.552 352.773C778.346 312.428 752.073 275.382 715.831 253.39C679.605 231.398 616.55 230.885 579.243 250.809C539.58 271.998 513.209 318.46 469.731 328.662C444.538 334.574 418.511 326.885 393.138 321.861C357.534 314.804 321.259 310.429 285.312 315.197C243.013 320.784 200.337 342.93 180.612 392.707C173.704 410.137 171.379 429.276 174.129 447.919C176.601 464.648 182.838 485.837 197.931 503.659Z" fill="#EBEBF5"/>
<path d="M524.847 216.974C515.697 204.995 501.455 198.451 487.214 194.76C467.554 189.667 446.421 189.291 427.35 196.4C408.28 203.526 391.566 218.7 384.527 238.522C377.489 258.344 381.368 282.591 395.953 297.253C404.122 305.472 415.613 309.881 426.892 309.864C433.587 310.616 440.43 309.83 446.715 307.301C460.711 301.679 470.992 288.897 484.431 281.908C499.016 274.321 517.776 273.108 527.647 259.557C536.535 247.356 533.998 228.97 524.847 216.974Z" fill="#EBEBF5"/>
<path d="M261.854 641.66C260.332 638.396 258.907 635.098 257.991 631.612C255.028 620.436 257.172 607.689 251.427 597.761C244.208 585.304 226.43 583.031 214.333 590.276C202.236 597.539 195.312 611.722 192.365 625.956C190.548 634.722 190.024 644.052 192.889 652.51C196.228 662.336 203.84 669.974 212.14 675.784C221.372 682.243 232.143 686.977 243.242 686.584C248.185 686.413 253.162 685.046 257.565 682.636C261.035 681.064 264.113 678.638 266.225 675.477C267.763 673.58 269.057 671.461 270.006 669.137C273.967 659.482 270.415 646.735 261.854 641.66Z" fill="#EBEBF5"/>
<path d="M699.281 640.84H352.672C349.415 640.84 346.763 638.054 346.763 634.671V402.514C346.763 399.114 349.431 396.346 352.672 396.346H699.281C702.539 396.346 705.191 399.131 705.191 402.514V634.671C705.207 638.054 702.539 640.84 699.281 640.84Z" fill="#4E3D5F"/>
<path d="M696.335 414.117H355.635V617.139H696.335V414.117Z" fill="#D5CBFB"/>
<path d="M528.121 404.496C528.121 405.727 527.156 406.735 525.977 406.735C524.798 406.735 523.833 405.727 523.833 404.496C523.833 403.266 524.798 402.258 525.977 402.258C527.156 402.258 528.121 403.266 528.121 404.496Z" fill="#D5CBFB"/>
<path d="M753.448 720.623L709.414 647.47C706.926 643.335 702.588 640.84 697.923 640.84H518.3H508.363H354.047C349.382 640.84 345.028 643.352 342.556 647.47L298.522 720.623C297.278 722.691 296.836 725.152 297.229 727.527H754.742C755.134 725.152 754.692 722.691 753.448 720.623Z" fill="#D5CBFB"/>
<path d="M297.229 727.527C297.31 728.023 297.409 728.501 297.572 728.98L298.26 731.15C299.553 735.183 303.154 737.9 307.214 737.9H508.363H518.3H744.74C748.799 737.9 752.417 735.183 753.71 731.15L754.398 728.98C754.545 728.501 754.66 728.006 754.742 727.527H297.229Z" fill="#4E3D5F"/>
<path d="M370.613 676.929L372.758 672.008H362.15L359.875 676.929H370.613Z" fill="#4E3D5F"/>
<path d="M389.307 662.917L390.355 660.354L391.321 657.996H381.057L378.913 662.917H389.307Z" fill="#4E3D5F"/>
<path d="M374.951 672.008L372.807 676.929H383.562L385.575 672.008H374.951Z" fill="#4E3D5F"/>
<path d="M373.658 669.923L375.803 665.002H365.375L363.116 669.923H373.658Z" fill="#4E3D5F"/>
<path d="M589.671 657.996L590.849 662.917H599.984L598.658 657.996H589.671Z" fill="#4E3D5F"/>
<path d="M425.975 672.008L424.535 676.929H435.388L436.763 672.008H425.975Z" fill="#4E3D5F"/>
<path d="M413.289 672.008L411.603 676.929H422.456L423.896 672.008H413.289Z" fill="#4E3D5F"/>
<path d="M400.553 672.008L398.671 676.929H409.475L411.177 672.008H400.553Z" fill="#4E3D5F"/>
<path d="M387.752 672.008L385.739 676.929H396.51L398.409 672.008H387.752Z" fill="#4E3D5F"/>
<path d="M600.737 657.996L602.046 662.917H610.575L609.2 657.996H600.737Z" fill="#4E3D5F"/>
<path d="M462.659 665.002L461.481 669.923H470.058L471.122 665.002H462.659Z" fill="#4E3D5F"/>
<path d="M555.72 657.996L556.522 662.917H566.426L565.493 657.996H555.72Z" fill="#4E3D5F"/>
<path d="M461.104 662.917L462.299 657.996H453.296L451.986 662.917H461.104Z" fill="#4E3D5F"/>
<path d="M449.908 662.917L451.217 657.996H442.77L441.395 662.917H449.908Z" fill="#4E3D5F"/>
<path d="M471.564 662.917L472.628 657.996H464.345L463.167 662.917H471.564Z" fill="#4E3D5F"/>
<path d="M611.279 657.996L612.654 662.917H623.31L621.87 657.996H611.279Z" fill="#4E3D5F"/>
<path d="M418.134 657.996L416.432 662.917H426.565L427.301 660.371L428.005 657.996H418.134Z" fill="#4E3D5F"/>
<path d="M414.304 662.917L416.006 657.996H405.922L404.04 662.917H414.304Z" fill="#4E3D5F"/>
<path d="M393.498 657.996L391.468 662.917H401.896L402.878 660.354L403.778 657.996H393.498Z" fill="#4E3D5F"/>
<path d="M579.342 657.996L580.406 662.917H588.803L587.608 657.996H579.342Z" fill="#4E3D5F"/>
<path d="M567.539 657.996L568.456 662.917H578.359L577.295 657.996H567.539Z" fill="#4E3D5F"/>
<path d="M439.316 662.917L440.691 657.996H430.084L428.643 662.917H439.316Z" fill="#4E3D5F"/>
<path d="M451.774 655.912L453.001 651.332H444.637L443.343 655.912H451.774Z" fill="#4E3D5F"/>
<path d="M441.264 655.912L442.558 651.332H432.032L430.69 655.912H441.264Z" fill="#4E3D5F"/>
<path d="M544.065 657.996L544.622 662.917H554.509L553.707 657.996H544.065Z" fill="#4E3D5F"/>
<path d="M484.824 655.912L485.691 651.332H476.099L475.117 655.912H484.824Z" fill="#4E3D5F"/>
<path d="M473.07 655.912L474.053 651.332H465.966L464.853 655.912H473.07Z" fill="#4E3D5F"/>
<path d="M462.79 655.912L463.904 651.332H455.08L453.853 655.912H462.79Z" fill="#4E3D5F"/>
<path d="M660.649 657.996L662.663 662.917H673.057L670.913 657.996H660.649Z" fill="#4E3D5F"/>
<path d="M392.172 655.912L394.055 651.332H383.955L381.957 655.912H392.172Z" fill="#4E3D5F"/>
<path d="M404.58 655.912L406.332 651.332H396.215L394.349 655.912H404.58Z" fill="#4E3D5F"/>
<path d="M428.611 655.912L429.953 651.332H420.426L418.838 655.912H428.611Z" fill="#4E3D5F"/>
<path d="M673.107 657.996L675.251 662.917H685.613L683.354 657.996H673.107Z" fill="#4E3D5F"/>
<path d="M416.726 655.912L418.298 651.332H408.493L406.725 655.912H416.726Z" fill="#4E3D5F"/>
<path d="M623.965 657.996L625.406 662.917H635.538L633.836 657.996H623.965Z" fill="#4E3D5F"/>
<path d="M483.809 672.008L482.876 676.929H493.14L493.942 672.008H483.809Z" fill="#4E3D5F"/>
<path d="M438.842 672.008L437.467 676.929H446.175L447.485 672.008H438.842Z" fill="#4E3D5F"/>
<path d="M471.646 672.008L470.599 676.929H480.846L481.779 672.008H471.646Z" fill="#4E3D5F"/>
<path d="M449.564 672.008L448.238 676.929H457.732L458.911 672.008H449.564Z" fill="#4E3D5F"/>
<path d="M460.973 672.008L459.795 676.929H468.552L469.6 672.008H460.973Z" fill="#4E3D5F"/>
<path d="M498.263 657.996L497.461 662.917H507.348L507.889 657.996H498.263Z" fill="#4E3D5F"/>
<path d="M496.577 655.912L497.33 651.332H487.721L486.854 655.912H496.577Z" fill="#4E3D5F"/>
<path d="M485.135 665.002L484.202 669.923H494.285L495.088 665.002H485.135Z" fill="#4E3D5F"/>
<path d="M648.192 657.996L650.075 662.917H660.486L658.472 657.996H648.192Z" fill="#4E3D5F"/>
<path d="M506.563 669.923L507.103 665.002H497.117L496.315 669.923H506.563Z" fill="#4E3D5F"/>
<path d="M635.964 657.996L637.65 662.917H647.914L646.031 657.996H635.964Z" fill="#4E3D5F"/>
<path d="M376.719 662.917L378.864 657.996H368.616L366.341 662.917H376.719Z" fill="#4E3D5F"/>
<path d="M603.716 676.929L602.406 672.008H593.043L594.238 676.929H603.716Z" fill="#4E3D5F"/>
<path d="M451.43 665.002L450.12 669.923H459.418L460.597 665.002H451.43Z" fill="#4E3D5F"/>
<path d="M621.264 655.912L619.922 651.332H609.413L610.689 655.912H621.264Z" fill="#4E3D5F"/>
<path d="M645.229 655.912L643.478 651.332H633.656L635.244 655.912H645.229Z" fill="#4E3D5F"/>
<path d="M633.116 655.912L631.544 651.332H622.017L623.359 655.912H633.116Z" fill="#4E3D5F"/>
<path d="M576.837 655.912L575.855 651.332H566.279L567.13 655.912H576.837Z" fill="#4E3D5F"/>
<path d="M565.1 655.912L564.233 651.332H554.64L555.393 655.912H565.1Z" fill="#4E3D5F"/>
<path d="M657.621 655.912L655.738 651.332H645.622L647.39 655.912H657.621Z" fill="#4E3D5F"/>
<path d="M598.101 655.912L596.89 651.332H588.067L589.163 655.912H598.101Z" fill="#4E3D5F"/>
<path d="M587.101 655.912L586.004 651.332H577.901L578.883 655.912H587.101Z" fill="#4E3D5F"/>
<path d="M592.175 676.929L590.98 672.008H582.354L583.418 676.929H592.175Z" fill="#4E3D5F"/>
<path d="M666.231 676.929L664.218 672.008H653.561L655.444 676.929H666.231Z" fill="#4E3D5F"/>
<path d="M640.367 676.929L638.665 672.008H628.074L629.514 676.929H640.367Z" fill="#4E3D5F"/>
<path d="M692.079 676.929L689.82 672.008H679.212L681.357 676.929H692.079Z" fill="#4E3D5F"/>
<path d="M679.163 676.929L677.019 672.008H666.379L668.392 676.929H679.163Z" fill="#4E3D5F"/>
<path d="M653.299 676.929L651.417 672.008H640.793L642.479 676.929H653.299Z" fill="#4E3D5F"/>
<path d="M581.371 676.929L580.307 672.008H570.191L571.108 676.929H581.371Z" fill="#4E3D5F"/>
<path d="M669.996 655.912L667.999 651.332H657.916L659.782 655.912H669.996Z" fill="#4E3D5F"/>
<path d="M687.839 662.917H697.415L694.747 657.996H685.564L687.839 662.917Z" fill="#4E3D5F"/>
<path d="M614.503 676.929L613.112 672.008H604.485L605.795 676.929H614.503Z" fill="#4E3D5F"/>
<path d="M682.388 655.912L680.276 651.332H670.193L672.19 655.912H682.388Z" fill="#4E3D5F"/>
<path d="M627.419 676.929L625.979 672.008H615.191L616.582 676.929H627.419Z" fill="#4E3D5F"/>
<path d="M693.618 655.912L691.129 651.332H682.486L684.598 655.912H693.618Z" fill="#4E3D5F"/>
<path d="M608.61 655.912L607.334 651.332H598.952L600.18 655.912H608.61Z" fill="#4E3D5F"/>
<path d="M544.163 676.929L543.623 672.008H533.278L533.458 676.929H544.163Z" fill="#4E3D5F"/>
<path d="M390.617 665.002L389.569 667.565L388.604 669.923H399.195L401.093 665.002H390.617Z" fill="#4E3D5F"/>
<path d="M555.655 669.923L554.853 665.002H544.851L545.408 669.923H555.655Z" fill="#4E3D5F"/>
<path d="M386.426 669.923L388.456 665.002H377.996L376.883 667.582L375.852 669.923H386.426Z" fill="#4E3D5F"/>
<path d="M474.675 657.996L473.611 662.917H483.498L484.431 657.996H474.675Z" fill="#4E3D5F"/>
<path d="M486.461 657.996L485.528 662.917H495.431L496.233 657.996H486.461Z" fill="#4E3D5F"/>
<path d="M428.038 665.002L426.597 669.923H437.352L438.727 665.002H428.038Z" fill="#4E3D5F"/>
<path d="M403.238 665.002L401.355 669.923H411.897L413.583 665.002H403.238Z" fill="#4E3D5F"/>
<path d="M440.806 665.002L439.431 669.923H448.041L449.351 665.002H440.806Z" fill="#4E3D5F"/>
<path d="M532.999 665.002L533.196 669.923H543.394L542.838 665.002H532.999Z" fill="#4E3D5F"/>
<path d="M415.712 665.002L414.009 669.923H424.502L425.942 665.002H415.712Z" fill="#4E3D5F"/>
<path d="M541.823 655.912L541.315 651.332H532.476L532.656 655.912H541.823Z" fill="#4E3D5F"/>
<path d="M569.078 676.929L568.145 672.008H558.012L558.814 676.929H569.078Z" fill="#4E3D5F"/>
<path d="M521.475 651.332L521.312 655.912H530.659L530.479 651.332H521.475Z" fill="#4E3D5F"/>
<path d="M521.23 657.996L521.033 662.917H530.92L530.74 657.996H521.23Z" fill="#4E3D5F"/>
<path d="M542.608 662.917L542.068 657.996H532.738L532.918 662.917H542.608Z" fill="#4E3D5F"/>
<path d="M553.363 655.912L552.61 651.332H543.329L543.836 655.912H553.363Z" fill="#4E3D5F"/>
<path d="M520.951 665.002L520.771 669.923H531.199L531.002 665.002H520.951Z" fill="#4E3D5F"/>
<path d="M520.69 672.008L520.493 676.929H531.461L531.281 672.008H520.69Z" fill="#4E3D5F"/>
<path d="M519.314 655.912L519.478 651.332H510.639L510.131 655.912H519.314Z" fill="#4E3D5F"/>
<path d="M498.607 655.912H508.118L508.642 651.332H499.344L498.607 655.912Z" fill="#4E3D5F"/>
<path d="M567.752 669.923L566.819 665.002H556.866L557.668 669.923H567.752Z" fill="#4E3D5F"/>
<path d="M473.169 665.002L472.105 669.923H482.172L483.105 665.002H473.169Z" fill="#4E3D5F"/>
<path d="M345.83 679.014L343.505 683.32H354.719L356.699 679.014H345.83Z" fill="#4E3D5F"/>
<path d="M612.539 669.923L611.164 665.002H602.603L603.929 669.923H612.539Z" fill="#4E3D5F"/>
<path d="M606.351 679.014L607.497 683.32H616.288L615.076 679.014H606.351Z" fill="#4E3D5F"/>
<path d="M590.489 669.923L589.294 665.002H580.848L581.912 669.923H590.489Z" fill="#4E3D5F"/>
<path d="M518.496 676.929L518.692 672.008H508.331L507.79 676.929H518.496Z" fill="#4E3D5F"/>
<path d="M643.199 679.014L644.689 683.32H655.755L654.101 679.014H643.199Z" fill="#4E3D5F"/>
<path d="M676.102 669.923L673.958 665.002H663.514L665.527 669.923H676.102Z" fill="#4E3D5F"/>
<path d="M656.246 679.014L657.899 683.32H668.85L667.082 679.014H656.246Z" fill="#4E3D5F"/>
<path d="M495.971 672.008L495.169 676.929H505.777L506.333 672.008H495.971Z" fill="#4E3D5F"/>
<path d="M349.628 672.008L346.959 676.929H357.665L359.924 672.008H349.628Z" fill="#4E3D5F"/>
<path d="M546.406 679.014L546.897 683.32H557.832L557.128 679.014H546.406Z" fill="#4E3D5F"/>
<path d="M384.888 679.014L383.12 683.32H394.055L395.708 679.014H384.888Z" fill="#4E3D5F"/>
<path d="M518.414 679.014H507.561L507.07 683.32H518.25L518.414 679.014Z" fill="#4E3D5F"/>
<path d="M663.35 669.923L661.337 665.002H650.877L652.759 669.923H663.35Z" fill="#4E3D5F"/>
<path d="M358.909 679.014L356.928 683.32H367.831L369.713 679.014H358.909Z" fill="#4E3D5F"/>
<path d="M568.865 665.002L569.798 669.923H579.865L578.801 665.002H568.865Z" fill="#4E3D5F"/>
<path d="M617.155 679.014L618.367 683.32H629.302L628.025 679.014H617.155Z" fill="#4E3D5F"/>
<path d="M571.517 679.014L572.319 683.32H582.747L581.813 679.014H571.517Z" fill="#4E3D5F"/>
<path d="M625.373 669.923L623.932 665.002H613.243L614.618 669.923H625.373Z" fill="#4E3D5F"/>
<path d="M637.945 669.923L636.259 665.002H626.011L627.452 669.923H637.945Z" fill="#4E3D5F"/>
<path d="M559.158 679.014L559.862 683.32H570.289L569.471 679.014H559.158Z" fill="#4E3D5F"/>
<path d="M630.12 679.014L631.38 683.32H642.561L641.088 679.014H630.12Z" fill="#4E3D5F"/>
<path d="M357.223 657.996L354.555 662.917H364.131L366.39 657.996H357.223Z" fill="#4E3D5F"/>
<path d="M682.257 679.014L684.14 683.32H695.042L693.045 679.014H682.257Z" fill="#4E3D5F"/>
<path d="M360.824 651.332L358.353 655.912H367.356L369.467 651.332H360.824Z" fill="#4E3D5F"/>
<path d="M650.615 669.923L648.716 665.002H638.37L640.073 669.923H650.615Z" fill="#4E3D5F"/>
<path d="M492.092 683.32L492.796 679.014H397.869L396.215 683.32H492.092Z" fill="#4E3D5F"/>
<path d="M583.86 679.014L584.793 683.32H593.714L592.683 679.014H583.86Z" fill="#4E3D5F"/>
<path d="M509.345 662.917H519.036L519.233 657.996H509.902L509.345 662.917Z" fill="#4E3D5F"/>
<path d="M702.326 672.008H692.03L697.252 683.32H708.465L702.326 672.008Z" fill="#4E3D5F"/>
<path d="M691.064 669.923H701.197L698.528 665.002H688.805L691.064 669.923Z" fill="#4E3D5F"/>
<path d="M688.854 669.923L686.579 665.002H676.151L678.296 669.923H688.854Z" fill="#4E3D5F"/>
<path d="M505.073 683.32L505.548 679.014H494.826L494.122 683.32H505.073Z" fill="#4E3D5F"/>
<path d="M520.411 679.014L520.248 683.32H544.884L544.409 679.014H520.411Z" fill="#4E3D5F"/>
<path d="M669.26 679.014L671.011 683.32H681.946L680.064 679.014H669.26Z" fill="#4E3D5F"/>
<path d="M601.85 669.923L600.54 665.002H591.357L592.552 669.923H601.85Z" fill="#4E3D5F"/>
<path d="M594.729 679.014L595.777 683.32H605.418L604.272 679.014H594.729Z" fill="#4E3D5F"/>
<path d="M353.425 665.002L350.757 669.923H360.89L363.165 665.002H353.425Z" fill="#4E3D5F"/>
<path d="M379.764 655.912L381.761 651.332H371.694L369.582 655.912H379.764Z" fill="#4E3D5F"/>
<path d="M371.89 679.014L370.024 683.32H380.943L382.71 679.014H371.89Z" fill="#4E3D5F"/>
<path d="M518.758 669.923L518.954 665.002H509.116L508.576 669.923H518.758Z" fill="#4E3D5F"/>
<path d="M555.999 672.008H545.637L546.177 676.929H556.801L555.999 672.008Z" fill="#4E3D5F"/>
<path d="M588.525 720.025H463.429C462.889 720.025 462.414 719.769 462.086 719.325C461.775 718.88 461.677 718.317 461.841 717.787L469.797 690.805C470.009 690.07 470.648 689.592 471.384 689.592H580.569C581.306 689.592 581.944 690.087 582.157 690.805L590.113 717.787C590.277 718.317 590.178 718.88 589.867 719.325C589.54 719.769 589.049 720.025 588.525 720.025ZM471.384 691.13C471.303 691.13 471.237 691.181 471.204 691.266L463.249 718.248C463.232 718.317 463.249 718.385 463.281 718.419C463.314 718.453 463.347 718.487 463.429 718.487H588.525C588.607 718.487 588.64 718.453 588.672 718.419C588.689 718.385 588.721 718.334 588.705 718.248L580.749 691.266C580.733 691.198 580.651 691.13 580.586 691.13H471.384Z" fill="#4E3D5F"/>
<path d="M493.432 588.318C496.673 597.443 489.699 608.551 477.864 613.147C466.013 617.744 459.268 611.951 454.521 603.561C447.597 591.309 454.276 584.696 466.111 580.099C477.946 575.52 490.174 579.194 493.432 588.318Z" fill="#FFF6DC"/>
<path d="M375.161 487.842C375.161 487.842 404.545 519.438 428.641 576.152C428.641 576.152 440.067 606.945 447.564 614.634C447.564 614.634 441.491 607.509 450.756 596.111C457.566 587.738 467.486 582.612 477.979 582.236C483.855 582.014 489.978 583.295 493.464 588.456C493.464 588.456 454.259 540.251 428.657 498.659C418.426 482.049 413.581 468.311 411.453 457.819C411.453 457.819 409.521 455.443 405.674 453.461C391.531 446.165 374.883 455.99 372.411 472.241C372.182 473.762 372.035 475.368 372.002 477.094C372.002 477.094 371.806 484.305 375.161 487.842Z" fill="white"/>
<path d="M447.548 614.634C447.548 614.634 460.414 630.833 489.552 611.387C489.552 611.387 507.591 598.827 498.588 576.955C498.588 576.955 479.894 562.396 465.145 543.958C450.396 525.52 432.16 500.401 417.035 467.182L413.172 464.738C413.172 464.738 415.954 480.493 433.961 507.031C451.967 533.568 485.198 578.014 485.198 578.014L490.272 584.405C493.186 588.079 494.185 593.12 492.58 597.58C490.289 603.937 483.544 611.455 464.752 612.6L453.015 593.581C452.999 593.581 441.606 603.441 447.548 614.634Z" fill="#F4E7BD"/>
<path d="M475.998 556.296C475.998 556.296 442.228 519.54 418.557 461.355C418.557 461.355 414.285 454.264 411.567 451C411.584 451.017 432.16 517.404 475.998 556.296Z" fill="white"/>
<path d="M411.75 551.864C418.854 538.484 434.209 529.65 448.811 530.402C454.016 530.675 454 523.926 448.811 523.652C431.475 522.746 414.304 531.769 405.89 547.592C405.89 547.609 409.213 556.615 411.75 551.864Z" fill="#F0C64B"/>
<path d="M359.433 576.453H293.169C284.379 576.453 277.192 568.952 277.192 559.775V523.754C277.192 514.578 284.379 507.076 293.169 507.076H359.433C368.223 507.076 375.41 514.578 375.41 523.754V559.775C375.41 568.952 368.223 576.453 359.433 576.453Z" fill="#E32944"/>
<path d="M315.759 541.764V529.051L326.301 535.407L336.843 541.764L326.301 548.121L315.759 554.461V541.764Z" fill="#D5CBFB"/>
<path d="M307.116 423.447C307.116 402.258 290.664 385.102 270.383 385.102C250.084 385.102 233.649 402.275 233.649 423.447C233.649 438.792 242.292 452.035 254.766 458.17V470.404H285.999V458.17C298.473 452.035 307.116 438.792 307.116 423.447Z" fill="white"/>
<path d="M286.998 476.709H253.751C252.081 476.709 250.723 475.291 250.723 473.548C250.723 471.805 252.081 470.387 253.751 470.387H286.998C288.667 470.387 290.026 471.805 290.026 473.548C290.026 475.291 288.667 476.709 286.998 476.709Z" fill="#F0C64B"/>
<path d="M270.366 494.652C263.655 494.652 258.22 488.979 258.22 481.973V479.871H282.512V481.973C282.512 488.979 277.078 494.652 270.366 494.652Z" fill="#F0C64B"/>
<path d="M286.998 483.032H253.751C252.081 483.032 250.723 481.613 250.723 479.87C250.723 478.127 252.081 476.709 253.751 476.709H286.998C288.667 476.709 290.026 478.127 290.026 479.87C290.026 481.613 288.667 483.032 286.998 483.032Z" fill="#D8A32B"/>
<path d="M273.722 470.387H272.003V417.107C272.003 416.167 271.283 415.415 270.383 415.415C269.482 415.415 268.762 416.167 268.762 417.107V470.387H267.043V417.107C267.043 415.176 268.549 413.621 270.383 413.621C272.216 413.621 273.722 415.193 273.722 417.107V470.387Z" fill="#F0C64B"/>
<path d="M212.631 410.375L211.616 415.86L226.97 418.936C227.183 417.056 227.494 415.228 227.903 413.434L212.631 410.375Z" fill="#7B70EE"/>
<path d="M224.793 385.084L221.552 389.544L233.797 399.216C234.779 397.644 235.843 396.157 237.005 394.739L224.793 385.084Z" fill="#7B70EE"/>
<path d="M246.254 368.014L241.474 370.526L248.365 384.777C249.904 383.837 251.492 383 253.145 382.248L246.254 368.014Z" fill="#7B70EE"/>
<path d="M329.133 415.86L328.118 410.375L312.829 413.434C313.238 415.228 313.565 417.073 313.762 418.936L329.133 415.86Z" fill="#7B70EE"/>
<path d="M319.197 389.544L315.955 385.084L303.744 394.739C304.89 396.157 305.97 397.661 306.952 399.216L319.197 389.544Z" fill="#7B70EE"/>
<path d="M299.275 370.526L294.495 368.014L287.62 382.248C289.273 382.983 290.861 383.837 292.4 384.777L299.275 370.526Z" fill="#7B70EE"/>
<path d="M273.116 378.66L272.985 362.443L267.632 362.495L267.763 378.66C268.631 378.609 269.499 378.574 270.383 378.574C271.299 378.557 272.2 378.609 273.116 378.66Z" fill="#7B70EE"/>
<path d="M859.265 717.375H704V749.329H859.265V717.375Z" fill="#F0C64B"/>
<path d="M718.995 717.375H712.741V749.329H718.995V717.375Z" fill="#DB495E"/>
<path d="M728.391 717.375H722.137V749.329H728.391V717.375Z" fill="#DB495E"/>
<path d="M841.144 717.375H834.891V749.329H841.144V717.375Z" fill="#DB495E"/>
<path d="M850.524 717.375H844.271V749.329H850.524V717.375Z" fill="#DB495E"/>
<path d="M874.211 699.569V694.648C874.211 687.659 868.76 681.969 862.064 681.969H723.676V712.231H862.064C868.76 712.231 874.211 706.541 874.211 699.569Z" fill="white"/>
<path d="M862.064 676.654H722.776V679.32V681.986H862.064C868.76 681.986 874.211 687.676 874.211 694.665V699.586C874.211 706.575 868.76 712.266 862.064 712.266H722.776V714.897V717.563H862.064C871.575 717.563 879.302 709.497 879.302 699.569V694.648C879.318 684.72 871.575 676.654 862.064 676.654Z" fill="#25AD3B"/>
<path d="M864.782 688.752H723.693V691.178H864.782V688.752Z" fill="#F5F5FF"/>
<path d="M864.782 696.031H723.693V698.458H864.782V696.031Z" fill="#F5F5FF"/>
<path d="M864.782 703.328H723.693V705.755H864.782V703.328Z" fill="#F5F5FF"/>
<path d="M711.825 660.626V656.2C711.825 649.912 716.735 644.785 722.759 644.785H847.365V672.023H722.759C716.735 672.04 711.825 666.931 711.825 660.626Z" fill="white"/>
<path d="M722.759 640H848.183V642.392V644.785H722.759C716.735 644.785 711.825 649.911 711.825 656.199V660.625C711.825 666.913 716.735 672.04 722.759 672.04H848.183V674.432V676.824H722.759C714.198 676.824 707.241 669.562 707.241 660.625V656.199C707.241 647.262 714.198 640 722.759 640Z" fill="#DB495E"/>
<path d="M720.315 653.068H847.359V650.881H720.315V653.068Z" fill="#F5F5FF"/>
<path d="M720.315 659.641H847.359V657.453H720.315V659.641Z" fill="#F5F5FF"/>
<path d="M720.315 666.215H847.359V664.028H720.315V666.215Z" fill="#F5F5FF"/>
<path d="M618.117 296.201C623.978 296.201 628.741 301.02 628.741 306.949V308.59C630.869 314.861 632.179 323.029 632.179 331.983C632.179 340.937 630.886 349.105 628.741 355.377V357.017C628.741 362.947 623.994 367.765 618.117 367.765C610.358 367.765 604.056 351.754 604.056 332C604.056 312.23 610.358 296.201 618.117 296.201Z" fill="#F0C64B"/>
<path d="M608.836 332.427C608.836 344.508 609.736 354.316 610.833 354.316C611.946 354.316 612.83 344.525 612.83 332.427C612.83 320.346 611.93 310.537 610.833 310.537C609.736 310.554 608.836 320.346 608.836 332.427Z" fill="#D8A32B"/>
<path d="M643.605 315.768V317.203V347.671V349.106C642.885 357.36 635.616 364.998 625.877 367.749V347.671V317.203V297.125C635.616 299.876 642.885 307.532 643.605 315.768Z" fill="#7B70EE"/>
<path d="M625.877 371.576C627.464 371.576 628.758 370.26 628.758 368.654V296.201C628.758 294.595 627.464 293.279 625.877 293.279C624.289 293.279 622.995 294.595 622.995 296.201V368.654C622.995 370.26 624.289 371.576 625.877 371.576Z" fill="#2525AD"/>
<path d="M562.952 296.201C557.092 296.201 552.328 301.02 552.328 306.949V308.59C550.2 314.861 548.89 323.029 548.89 331.983C548.89 340.937 550.184 349.105 552.328 355.377V357.017C552.328 362.947 557.075 367.765 562.952 367.765C570.711 367.765 577.013 351.754 577.013 332C577.013 312.23 570.711 296.201 562.952 296.201Z" fill="#F0C64B"/>
<path d="M572.233 332.427C572.233 344.508 571.333 354.316 570.236 354.316C569.123 354.316 568.239 344.525 568.239 332.427C568.239 320.346 569.14 310.537 570.236 310.537C571.333 310.554 572.233 320.346 572.233 332.427Z" fill="#D8A32B"/>
<path d="M537.465 315.768V317.203V347.671V349.106C538.185 357.36 545.453 364.998 555.193 367.749V347.671V317.203V297.125C545.453 299.876 538.185 307.532 537.465 315.768Z" fill="#7B70EE"/>
<path d="M555.193 371.576C553.605 371.576 552.312 370.26 552.312 368.654V296.201C552.312 294.595 553.605 293.279 555.193 293.279C556.781 293.279 558.074 294.595 558.074 296.201V368.654C558.074 370.26 556.781 371.576 555.193 371.576Z" fill="#2525AD"/>
<path d="M626.138 252.115C620.376 247.142 612.83 244.015 605.66 242.17C598.31 240.29 590.617 239.794 583.103 240.717C580.828 240.99 578.569 241.366 576.342 241.862C574.82 242.204 573.134 242.46 571.71 243.161C570.22 243.895 568.78 244.699 567.306 245.485C563.328 247.569 559.367 249.671 555.389 251.756C553.801 252.593 553.998 255.003 555.389 255.891C559.056 258.215 563.263 258.506 567.421 257.822C570.351 257.344 573.019 256.199 575.786 255.191C580.762 253.396 586.164 252.508 591.419 252.474C596.117 252.456 600.864 253.191 605.202 255.122C611.619 258.01 619.296 259.924 625.664 255.874C626.842 255.139 627.317 253.123 626.138 252.115Z" fill="#7B70EE"/>
<path d="M591.533 238.051L591.55 238C591.206 238 590.878 238.017 590.551 238.034C590.224 238.034 589.88 238 589.552 238L589.569 238.051C556.502 239.145 530 267.46 530 302.251V341.262C530 345.586 533.356 349.106 537.514 349.106V310.658L537.35 309.667C534.813 294.083 538.054 277.849 547.172 265.221C551.428 259.326 557.19 253.772 564.998 249.756C565.096 249.705 565.178 249.654 565.276 249.62C581.171 241.52 599.947 241.52 615.842 249.62C615.94 249.671 616.022 249.722 616.12 249.756C623.978 253.789 629.756 259.394 634.029 265.324C643.081 277.934 646.289 294.134 643.768 309.667L643.605 310.658V349.106C647.746 349.106 651.118 345.603 651.118 341.262V302.268C651.086 267.477 624.6 239.162 591.533 238.051Z" fill="#2A2AA4"/>
<path d="M834.677 325H737V472.452H834.677V325Z" fill="#D5CBFB"/>
<path d="M824.135 346.633H747.542V349.897H824.135V346.633Z" fill="#4E3D5F"/>
<path d="M824.135 361.602H747.542V364.865H824.135V361.602Z" fill="#4E3D5F"/>
<path d="M824.135 376.588H747.542V379.852H824.135V376.588Z" fill="#4E3D5F"/>
<path d="M824.135 391.574H747.542V394.838H824.135V391.574Z" fill="#4E3D5F"/>
<path d="M824.135 406.561H747.542V409.824H824.135V406.561Z" fill="#4E3D5F"/>
<path d="M824.135 421.529H747.542V424.793H824.135V421.529Z" fill="#4E3D5F"/>
<path d="M824.135 457.928H747.542V458.833H824.135V457.928Z" fill="white"/>
<path d="M758.019 443.761C761.931 444.444 765.909 444.65 769.854 444.291C773.504 443.966 777.384 443.317 780.789 441.847C783.211 440.805 785.863 437.934 784.161 435.046C782.655 432.5 778.906 432.244 776.402 432.859C773.488 433.577 770.901 435.576 769.133 438.054C767.366 440.531 766.138 444.12 768.233 446.803C770.165 449.28 773.717 449.776 776.565 449.366C778.169 449.127 779.725 448.58 781.132 447.725C781.787 447.332 782.393 446.854 782.982 446.358C783.735 445.709 784.537 444.838 785.568 444.684C786.796 444.513 787.091 445.47 787.86 446.187C788.4 446.683 789.104 446.837 789.808 446.768C790.676 446.683 791.462 446.29 792.264 445.965C793.279 445.555 794.277 445.401 795.357 445.436C800.023 445.555 804.704 446.205 809.353 446.598C810.188 446.666 810.172 445.863 809.353 445.794C805.899 445.504 802.446 444.667 798.975 444.376C797.404 444.239 795.767 443.983 794.195 444.12C792.706 444.239 791.511 445.06 790.086 445.367C788.482 445.726 788.269 444.034 786.976 443.522C785.83 443.06 784.586 443.453 783.604 444.137C782.409 444.957 781.443 446.051 780.183 446.768C778.759 447.572 777.155 448.05 775.534 448.153C772.915 448.323 769.019 447.486 768.462 444.257C767.955 441.3 770.312 438.259 772.342 436.516C774.437 434.721 777.269 433.542 780.003 434.072C781.312 434.328 782.998 434.961 783.326 436.482C783.702 438.259 782.196 439.694 780.821 440.395C779.233 441.215 777.384 441.625 775.649 442.035C773.733 442.479 771.785 442.804 769.837 442.975C766.007 443.317 762.144 443.522 758.346 442.855C757.544 442.684 757.2 443.624 758.019 443.761Z" fill="#4E3D5F"/>
<path d="M867.318 414.507L850.146 404.784L855.188 395.078C856.285 392.976 858.806 392.19 860.819 393.335L870.707 398.923C872.72 400.068 873.473 402.699 872.376 404.801L867.318 414.507Z" fill="#D5CBFB"/>
<path d="M866.1 416.759L848.936 407.037L799.34 502.45L816.504 512.172L866.1 416.759Z" fill="#2525AD"/>
<path d="M860.582 413.643L854.453 410.172L804.858 505.585L810.987 509.056L860.582 413.643Z" fill="#1C1C84"/>
<path d="M870.37 413.624L849.12 401.588L846.887 405.883L868.137 417.92L870.37 413.624Z" fill="#F0C64B"/>
<path d="M816.54 512.215L799.368 502.492L797.616 518.743L804.426 522.605L816.54 512.215Z" fill="#D5CBFB"/>
<path d="M804.426 522.604L797.616 518.742L796.487 529.405L804.426 522.604Z" fill="#2525AD"/>
<path d="M261.412 304.652L278.977 323.005" stroke="#7B70EE" stroke-width="2.1457" stroke-miterlimit="10"/>
<path d="M279.32 304.652L261.756 323.005" stroke="#7B70EE" stroke-width="2.1457" stroke-miterlimit="10"/>
<path d="M211.829 515.465L227.38 531.715" stroke="#2525AD" stroke-width="1.9001" stroke-miterlimit="10"/>
<path d="M227.707 515.465L212.14 531.715" stroke="#2525AD" stroke-width="1.9001" stroke-miterlimit="10"/>
<path d="M203.578 380.83C203.578 388.161 197.882 394.107 190.859 394.107C183.837 394.107 178.14 388.161 178.14 380.83C178.14 373.499 183.837 367.553 190.859 367.553C197.882 367.553 203.578 373.499 203.578 380.83Z" stroke="#7B70EE" stroke-width="2.1457" stroke-miterlimit="10"/>
<path d="M701.197 370.611C708.221 370.611 713.916 364.667 713.916 357.334C713.916 350.001 708.221 344.057 701.197 344.057C694.172 344.057 688.477 350.001 688.477 357.334C688.477 364.667 694.172 370.611 701.197 370.611Z" stroke="#7B70EE" stroke-width="2.1457" stroke-miterlimit="10"/>
<path d="M759.21 338.827C759.21 340.69 757.77 342.194 755.986 342.194C754.201 342.194 752.761 340.69 752.761 338.827C752.761 336.965 754.201 335.461 755.986 335.461C757.77 335.444 759.21 336.965 759.21 338.827Z" stroke="#2525AD" stroke-width="1.9001" stroke-miterlimit="10"/>
<path d="M447.616 226.355C447.616 228.217 446.175 229.721 444.391 229.721C442.607 229.721 441.166 228.217 441.166 226.355C441.166 224.492 442.607 222.988 444.391 222.988C446.175 222.988 447.616 224.492 447.616 226.355Z" stroke="#2525AD" stroke-width="1.9001" stroke-miterlimit="10"/>
<path d="M241.441 654.408V662.388C231.177 662.986 222.993 671.872 222.993 682.74V689.524C222.993 700.665 231.587 709.722 242.194 709.927C246.057 731.765 264.375 748.323 286.408 748.323C311.257 748.323 331.392 727.305 331.392 701.366V654.408H241.441ZM229.311 689.524V682.74C229.311 675.512 234.664 669.565 241.441 668.984V701.366C241.441 702.015 241.458 702.647 241.49 703.297C234.681 702.716 229.311 696.769 229.311 689.524Z" fill="#2525AD"/>
<path d="M308.998 600.957C303.269 597.881 295.755 599.334 291.156 604.033C290.337 597.181 284.1 592.003 277.552 590.978C271.005 589.952 264.375 592.345 258.629 595.779C252.998 599.146 247.743 603.811 245.386 610.116C243.029 616.422 244.355 624.555 249.691 628.4C251.869 629.955 254.635 630.399 257.221 629.938C257.565 632.091 258.384 634.125 259.71 635.833C264.162 641.49 273.362 642.053 278.42 636.978C282.25 640.516 288.144 641.421 292.792 639.166C293.807 638.67 294.74 638.038 295.592 637.286C295.248 641.985 293.545 646.582 290.664 650.221C296.246 648.188 301.01 643.848 303.695 638.362C305.446 634.757 306.281 630.69 306.166 626.64C310.504 625.769 314.499 622.454 315.906 618.011C317.952 611.637 314.711 604.033 308.998 600.957Z" fill="#D5CBFB"/>
<path d="M539.904 467.479C539.659 467.462 539.413 467.445 539.184 467.445C534.404 467.445 530.508 471.512 530.508 476.502C530.508 481.492 534.404 485.559 539.184 485.559C539.43 485.559 539.675 485.541 539.888 485.524C544.357 485.148 547.86 481.167 547.86 476.502C547.844 471.837 544.357 467.873 539.904 467.479Z" fill="#4E3D5F"/>
<path d="M570.319 476.518C570.319 474.946 569.73 473.477 568.666 472.366C567.602 471.255 566.194 470.64 564.688 470.64H561.479L561.152 469.512C560.726 468.026 560.153 466.59 559.45 465.223L558.909 464.181L561.185 461.806C563.378 459.516 563.378 455.808 561.185 453.518C560.121 452.407 558.713 451.809 557.207 451.809C555.701 451.809 554.293 452.424 553.229 453.518L550.954 455.893L549.955 455.329C548.646 454.595 547.271 453.996 545.846 453.552L544.766 453.21V449.861C544.766 447.076 542.867 444.666 540.264 444.12C539.904 444.034 539.528 444 539.151 444C537.645 444 536.237 444.615 535.173 445.726C534.109 446.837 533.52 448.306 533.52 449.878V453.227L532.44 453.569C531.016 454.014 529.641 454.612 528.331 455.346L527.332 455.91L525.057 453.535C522.864 451.245 519.311 451.245 517.118 453.535C516.054 454.646 515.481 456.115 515.481 457.687C515.481 459.26 516.07 460.729 517.118 461.84L519.393 464.215L518.853 465.257C518.149 466.624 517.576 468.06 517.151 469.546L516.823 470.674H513.615C510.521 470.674 508 473.306 508 476.535C508 478.107 508.589 479.577 509.653 480.688C510.717 481.798 512.125 482.414 513.631 482.414H516.84L517.167 483.541C517.593 485.028 518.165 486.463 518.869 487.831L519.41 488.873L517.134 491.248C514.941 493.538 514.941 497.246 517.134 499.536C518.198 500.646 519.606 501.245 521.112 501.245C522.618 501.245 524.026 500.629 525.09 499.536L527.365 497.161L528.364 497.724C529.673 498.459 531.048 499.057 532.472 499.502L533.553 499.843V503.193C533.553 506.422 536.074 509.054 539.168 509.054C539.528 509.054 539.904 509.02 540.264 508.951L540.428 508.917C541.459 508.678 542.392 508.131 543.129 507.345C544.193 506.234 544.782 504.765 544.782 503.193V499.843L545.863 499.502C547.287 499.057 548.662 498.459 549.972 497.724L550.97 497.161L553.245 499.536C554.309 500.646 555.717 501.245 557.223 501.245C558.729 501.245 560.137 500.629 561.201 499.536C562.265 498.425 562.838 496.955 562.838 495.383C562.838 493.811 562.249 492.342 561.201 491.231L558.926 488.856L559.466 487.813C560.17 486.446 560.743 485.011 561.168 483.524L561.496 482.397H564.704C567.798 482.379 570.319 479.748 570.319 476.518ZM550.79 487.728C548.089 490.77 544.439 492.632 540.477 492.974C540.052 493.008 539.61 493.025 539.168 493.025C530.443 493.025 523.338 485.609 523.338 476.501C523.338 467.393 530.443 459.977 539.168 459.977C539.61 459.977 540.068 459.994 540.494 460.028C544.422 460.37 548.089 462.233 550.79 465.274C553.507 468.333 554.997 472.315 554.997 476.501C554.997 480.688 553.507 484.669 550.79 487.728Z" fill="#4E3D5F"/>
<path d="M583.577 550.343C583.511 550.497 583.446 550.651 583.38 550.805C582.251 553.846 583.724 557.281 586.638 558.443C589.552 559.622 592.842 558.084 593.955 555.042C594.021 554.889 594.07 554.735 594.103 554.581C594.921 551.642 593.431 548.498 590.698 547.387C587.98 546.293 584.837 547.592 583.577 550.343Z" fill="#2525AD"/>
<path d="M595.517 533.255C594.601 532.896 593.602 532.913 592.718 533.323C591.818 533.734 591.13 534.485 590.787 535.442L590.034 537.493L589.297 537.442C588.331 537.373 587.365 537.39 586.4 537.51L585.663 537.612L584.812 535.613C583.993 533.682 581.816 532.811 579.966 533.665C579.066 534.075 578.379 534.827 578.035 535.784C577.691 536.741 577.707 537.783 578.1 538.706L578.952 540.705L578.395 541.218C577.658 541.884 576.987 542.619 576.398 543.405L575.94 544.02L573.975 543.234C572.355 542.585 570.505 543.217 569.572 544.755C569.441 544.977 569.326 545.2 569.244 545.439C568.901 546.396 568.917 547.438 569.31 548.361C569.703 549.301 570.423 550.018 571.34 550.377L573.304 551.163L573.255 551.932C573.189 552.94 573.206 553.949 573.337 554.957L573.435 555.726L571.52 556.614C569.67 557.469 568.835 559.741 569.654 561.672C570.046 562.612 570.767 563.33 571.683 563.689C572.6 564.047 573.599 564.03 574.483 563.62L576.398 562.732L576.889 563.313C577.527 564.082 578.231 564.782 578.984 565.397L579.574 565.876L578.821 567.926C578.1 569.892 579.033 572.113 580.932 572.882C581.849 573.241 582.847 573.224 583.731 572.814C584.632 572.404 585.319 571.652 585.663 570.695L586.416 568.644L587.153 568.695C588.118 568.764 589.084 568.747 590.05 568.61L590.787 568.507L591.638 570.507C592.456 572.438 594.634 573.309 596.483 572.455C597.384 572.045 598.071 571.293 598.415 570.336C598.759 569.379 598.742 568.337 598.349 567.414L597.498 565.415L598.055 564.902C598.791 564.235 599.463 563.501 600.052 562.715L600.51 562.099L602.475 562.886C604.357 563.637 606.485 562.663 607.222 560.681C607.304 560.442 607.369 560.203 607.418 559.963L607.435 559.844C607.533 559.143 607.435 558.408 607.156 557.759C606.763 556.819 606.043 556.102 605.126 555.743L603.162 554.957L603.211 554.188C603.277 553.18 603.26 552.171 603.146 551.163L603.048 550.394L604.963 549.506C605.863 549.096 606.534 548.344 606.894 547.387C607.254 546.43 607.222 545.387 606.829 544.465C606.436 543.525 605.716 542.807 604.799 542.448C603.882 542.09 602.884 542.107 602 542.517L600.085 543.405L599.594 542.824C598.955 542.055 598.251 541.355 597.498 540.74L596.909 540.261L597.662 538.211C598.333 536.245 597.4 534.024 595.517 533.255ZM597.482 548.31C598.628 550.736 598.857 553.504 598.12 556.102C598.038 556.375 597.957 556.666 597.842 556.956C595.796 562.51 589.805 565.278 584.484 563.142C579.164 561.006 576.512 554.752 578.559 549.198C578.657 548.908 578.788 548.634 578.902 548.361C580.016 545.934 581.964 544.055 584.37 543.046C586.793 542.038 589.461 542.021 591.9 542.995C594.355 543.986 596.336 545.866 597.482 548.31Z" fill="#2525AD"/>
</g>
</g>
<defs>
<filter id="filter0_d_2543_2" x="0" y="-14" width="1054.31" height="1067.49" filterUnits="userSpaceOnUse" color-interpolation-filters="sRGB">
<feFlood flood-opacity="0" result="BackgroundImageFix"/>
<feColorMatrix in="SourceAlpha" type="matrix" values="0 0 0 0 0 0 0 0 0 0 0 0 0 0 0 0 0 0 127 0" result="hardAlpha"/>
<feOffset dy="4"/>
<feGaussianBlur stdDeviation="2"/>
<feComposite in2="hardAlpha" operator="out"/>
<feColorMatrix type="matrix" values="0 0 0 0 0 0 0 0 0 0 0 0 0 0 0 0 0 0 0.25 0"/>
<feBlend mode="normal" in2="BackgroundImageFix" result="effect1_dropShadow_2543_2"/>
<feBlend mode="normal" in="SourceGraphic" in2="effect1_dropShadow_2543_2" result="shape"/>
</filter>
<linearGradient id="paint0_linear_2543_2" x1="527.156" y1="-14" x2="550" y2="1603" gradientUnits="userSpaceOnUse">
<stop stop-color="#4A63A3"/>
<stop offset="1" stop-color="#42868F" stop-opacity="0"/>
</linearGradient>
<clipPath id="clip0_2543_2">
<rect width="708" height="599" fill="white" transform="translate(173 191)"/>
</clipPath>
</defs>
</svg>
