<svg width="266" height="187" viewBox="0 0 266 187" fill="none" xmlns="http://www.w3.org/2000/svg">
<path d="M135.884 0L0 22.3852L130.662 90.6172L265.973 69.5991L135.884 0Z" fill="black"/>
<path d="M0 22.3848V25.6315L130.76 96.9565L265.973 72.7087V69.5987L130.662 90.6168L0 22.3848Z" fill="#2D2D2D"/>
<path d="M50.5492 99.1445L48.4703 113.567C48.4703 113.567 104.258 160.336 182.946 137.336L184.158 126.075C114.603 138.225 70.8147 114.695 50.5492 99.1445Z" fill="#2D2D2D"/>
<path d="M216.209 175.082C208.925 169.05 203.768 160.164 201.313 150.8C201.133 150.1 200.249 150.356 200.134 150.954C199.971 150.732 199.643 150.698 199.365 150.834C199.234 150.356 198.481 150.134 198.203 150.715C193.21 160.814 197.073 172.228 200.413 182.225C200.674 183.011 201.509 182.584 201.247 181.798C198.628 173.971 195.829 165.222 197.417 156.969C196.533 167.393 199.856 178.055 205.945 186.326C206.387 186.924 207.075 186.206 206.633 185.608C201.1 178.107 198.252 168.572 198.546 159.105C198.71 162.83 199.267 166.555 200.413 170.058C202.164 175.441 205.094 180.584 208.008 185.352C208.434 186.053 209.121 185.335 208.696 184.634C205.88 180.055 203.457 175.133 201.706 169.99C200.953 167.786 200.462 165.479 200.151 163.138C201.837 170.725 205.34 177.833 210.382 183.626C210.905 184.241 211.609 183.694 211.069 183.079C205.553 176.74 202.23 168.623 200.855 160.25C202.884 168.093 206.617 175.509 211.56 181.883C212.068 182.532 212.575 181.832 212.068 181.183C207.239 174.963 204.063 167.7 202.066 160.045C204.751 167.939 208.221 175.543 214.376 181.165C214.981 181.712 215.636 181.08 215.031 180.533C210.807 176.671 208.024 171.477 205.749 166.248C208.204 170.81 211.167 175.082 214.605 178.944C215.145 179.559 215.603 178.585 215.063 177.987C212.035 174.587 209.727 170.844 207.484 166.863C209.792 170.092 212.477 173.049 215.538 175.561C216.16 176.056 216.831 175.595 216.209 175.082Z" fill="#F0C64B"/>
<path d="M203.408 65.8906C200.576 62.3534 196.746 60.0295 192.817 58.0302C185.009 54.0829 176.333 52.357 167.87 50.6824C155.904 48.3242 143.676 46.137 133.739 38.2595C133.346 37.9519 132.986 38.1057 132.757 38.4132C132.741 38.4303 132.724 38.4474 132.708 38.4816C132.708 38.4987 132.692 38.4987 132.692 38.5158C132.446 38.8233 132.381 39.2677 132.741 39.6265C140.025 46.906 149.765 50.4944 159.358 53.0405C169.048 55.6037 178.936 57.3467 188.217 61.3794C188.512 61.499 188.79 61.6357 189.085 61.7554C189.134 61.7724 189.445 61.9262 189.445 61.9262C189.92 62.1654 190.394 62.4218 190.869 62.661C192.604 63.5667 194.29 64.4894 195.878 65.6514C197.777 67.0526 199.545 68.7614 200.773 70.8461C202.115 73.1188 202.573 75.682 202.524 78.3306C202.475 81.0818 201.984 83.8329 201.558 86.5328C201.116 89.3353 200.707 92.1548 200.298 94.9743C199.447 100.801 198.645 106.611 198.039 112.472C196.713 125.357 196.353 138.497 198.579 151.313C198.743 152.27 200.265 152.048 200.2 151.091C199.332 138.941 200.282 126.758 201.919 114.711C202.737 108.713 203.719 102.749 204.718 96.7856C205.667 91.1808 206.911 85.5417 207.337 79.8856C207.746 74.7251 206.617 69.8721 203.408 65.8906Z" fill="#F0C64B"/>
<path d="M197.957 152.236C198.104 152.168 198.235 152.099 198.383 152.031C198.465 151.997 198.465 151.997 198.366 152.031C198.415 152.014 198.448 151.997 198.497 151.98C198.563 151.963 198.628 151.929 198.694 151.911C199.005 151.809 199.316 151.741 199.643 151.689C199.725 151.672 199.79 151.655 199.872 151.655C199.659 151.672 199.905 151.655 199.954 151.655C200.118 151.638 200.265 151.638 200.429 151.638C200.593 151.638 200.74 151.655 200.904 151.672C200.985 151.672 201.051 151.689 201.133 151.706C201.182 151.706 201.215 151.724 201.264 151.724C201.149 151.706 201.149 151.706 201.247 151.724C201.477 151.775 201.673 151.775 201.886 151.655C202.066 151.553 202.23 151.365 202.279 151.16C202.377 150.75 202.197 150.169 201.738 150.083C200.183 149.776 198.612 149.963 197.188 150.698C196.795 150.903 196.631 151.467 196.844 151.86C197.073 152.287 197.548 152.441 197.957 152.236Z" fill="#D8A32B"/>
<path d="M197.793 150.545C197.941 150.476 198.072 150.408 198.219 150.34C198.301 150.306 198.301 150.306 198.203 150.34C198.252 150.323 198.285 150.306 198.334 150.288C198.399 150.271 198.465 150.237 198.53 150.22C198.841 150.118 199.152 150.049 199.479 149.998C199.561 149.981 199.627 149.964 199.709 149.964C199.496 149.981 199.741 149.964 199.79 149.964C199.954 149.947 200.102 149.947 200.265 149.947C200.429 149.947 200.576 149.964 200.74 149.981C200.822 149.981 200.887 149.998 200.969 150.015C201.018 150.015 201.051 150.032 201.1 150.032C200.985 150.015 200.985 150.015 201.084 150.032C201.313 150.083 201.509 150.083 201.722 149.964C201.902 149.861 202.066 149.673 202.115 149.468C202.213 149.058 202.033 148.477 201.575 148.392C200.02 148.084 198.448 148.272 197.024 149.007C196.631 149.212 196.467 149.776 196.68 150.169C196.909 150.613 197.384 150.767 197.793 150.545Z" fill="#D8A32B"/>
<path d="M188.217 92.1372L188.905 86.5323L130.76 96.956L57.5554 57.0215L55.9839 66.454L129.287 104.97L188.217 92.1372Z" fill="#3E3E3E"/>
<path d="M129.287 104.971L55.9839 66.4375L50.5493 99.1267C70.8311 114.66 114.603 138.19 184.141 126.057L188.217 92.1206L129.287 104.971Z" fill="black"/>
</svg>
